REM DIRINDEX 1\2,1\3,1\4,1\5,1\6,1\7,1\8
REM DIRNAME cjc150,folder01,folder02,folder03,folder04,folder05,folder06,folder07
TITLE ""
FILE "001 でる文31.mp3" MP3
  TRACK 01 AUDIO
    TITLE "8:cjc150_1415"
    INDEX 01 00:00:00
  TRACK 02 AUDIO
    TITLE "0:"
    INDEX 01 00:01:62
  TRACK 03 AUDIO
    TITLE "8:cjc150_1416"
    INDEX 01 00:02:14
  TRACK 04 AUDIO
    TITLE "0:"
    INDEX 01 00:04:07
  TRACK 05 AUDIO
    TITLE "2:cjc150_1417"
    INDEX 01 00:04:72
  TRACK 06 AUDIO
    TITLE "0:"
    INDEX 01 00:11:33
  TRACK 07 AUDIO
    TITLE "8:cjc150_1418"
    INDEX 01 00:12:60
  TRACK 08 AUDIO
    TITLE "0:"
    INDEX 01 00:15:36
  TRACK 09 AUDIO
    TITLE "3:cjc150_1419"
    INDEX 01 00:16:04
  TRACK 10 AUDIO
    TITLE "3:cjc150_1420"
    INDEX 01 00:17:37
  TRACK 11 AUDIO
    TITLE "3:cjc150_1421"
    INDEX 01 00:18:54
  TRACK 12 AUDIO
    TITLE "3:cjc150_1422"
    INDEX 01 00:20:12
  TRACK 13 AUDIO
    TITLE "3:cjc150_1423"
    INDEX 01 00:21:33
  TRACK 14 AUDIO
    TITLE "3:cjc150_1424"
    INDEX 01 00:23:24
  TRACK 15 AUDIO
    TITLE "3:cjc150_1425"
    INDEX 01 00:25:11
  TRACK 16 AUDIO
    TITLE "3:cjc150_1426"
    INDEX 01 00:27:53
  TRACK 17 AUDIO
    TITLE "3:cjc150_1427"
    INDEX 01 00:30:14
  TRACK 18 AUDIO
    TITLE "3:cjc150_1428"
    INDEX 01 00:32:27
  TRACK 19 AUDIO
    TITLE "8:cjc150_1429"
    INDEX 01 00:34:38
  TRACK 20 AUDIO
    TITLE "0:"
    INDEX 01 00:37:14
  TRACK 21 AUDIO
    TITLE "4:cjc150_1430"
    INDEX 01 00:37:59
  TRACK 22 AUDIO
    TITLE "4:cjc150_1431"
    INDEX 01 00:40:66
  TRACK 23 AUDIO
    TITLE "4:cjc150_1432"
    INDEX 01 00:44:22
  TRACK 24 AUDIO
    TITLE "4:cjc150_1433"
    INDEX 01 00:46:64
  TRACK 25 AUDIO
    TITLE "4:cjc150_1434"
    INDEX 01 00:49:65
  TRACK 26 AUDIO
    TITLE "4:cjc150_1435"
    INDEX 01 00:51:73
  TRACK 27 AUDIO
    TITLE "8:cjc150_1436"
    INDEX 01 00:54:36
  TRACK 28 AUDIO
    TITLE "0:"
    INDEX 01 00:57:31
  TRACK 29 AUDIO
    TITLE "5:cjc150_1437"
    INDEX 01 00:58:03
  TRACK 30 AUDIO
    TITLE "5:cjc150_1438"
    INDEX 01 01:00:27
  TRACK 31 AUDIO
    TITLE "5:cjc150_1439"
    INDEX 01 01:02:50
  TRACK 32 AUDIO
    TITLE "5:cjc150_1440"
    INDEX 01 01:04:07
  TRACK 33 AUDIO
    TITLE "5:cjc150_1441"
    INDEX 01 01:05:36
  TRACK 34 AUDIO
    TITLE "5:cjc150_1442"
    INDEX 01 01:07:15
  TRACK 35 AUDIO
    TITLE "5:cjc150_1443"
    INDEX 01 01:09:42
  TRACK 36 AUDIO
    TITLE "5:cjc150_1444"
    INDEX 01 01:11:00
  TRACK 37 AUDIO
    TITLE "5:cjc150_1445"
    INDEX 01 01:12:24
  TRACK 38 AUDIO
    TITLE "5:cjc150_1446"
    INDEX 01 01:14:31
  TRACK 39 AUDIO
    TITLE "5:cjc150_1447"
    INDEX 01 01:17:18
  TRACK 40 AUDIO
    TITLE "5:cjc150_1448"
    INDEX 01 01:19:09
  TRACK 41 AUDIO
    TITLE "5:cjc150_1449"
    INDEX 01 01:20:63
  TRACK 42 AUDIO
    TITLE "5:cjc150_1450"
    INDEX 01 01:23:56
  TRACK 43 AUDIO
    TITLE "5:cjc150_1451"
    INDEX 01 01:27:28
  TRACK 44 AUDIO
    TITLE "5:cjc150_1452"
    INDEX 01 01:29:68
  TRACK 45 AUDIO
    TITLE "5:cjc150_1453"
    INDEX 01 01:32:25
  TRACK 46 AUDIO
    TITLE "5:cjc150_1454"
    INDEX 01 01:34:44
  TRACK 47 AUDIO
    TITLE "5:cjc150_1455"
    INDEX 01 01:37:40
  TRACK 48 AUDIO
    TITLE "5:cjc150_1456"
    INDEX 01 01:39:53
  TRACK 49 AUDIO
    TITLE "8:cjc150_1457"
    INDEX 01 01:41:52
  TRACK 50 AUDIO
    TITLE "0:"
    INDEX 01 01:44:34
  TRACK 51 AUDIO
    TITLE "6:cjc150_1458"
    INDEX 01 01:45:08
  TRACK 52 AUDIO
    TITLE "6:cjc150_1459"
    INDEX 01 01:48:46
  TRACK 53 AUDIO
    TITLE "6:cjc150_1460"
    INDEX 01 01:52:36
  TRACK 54 AUDIO
    TITLE "6:cjc150_1461"
    INDEX 01 01:55:42
  TRACK 55 AUDIO
    TITLE "6:cjc150_1462"
    INDEX 01 01:58:34
  TRACK 56 AUDIO
    TITLE "6:cjc150_1463"
    INDEX 01 02:01:19
  TRACK 57 AUDIO
    TITLE "6:cjc150_1464"
    INDEX 01 02:04:41
  TRACK 58 AUDIO
    TITLE "6:cjc150_1465"
    INDEX 01 02:07:10
  TRACK 59 AUDIO
    TITLE "6:cjc150_1466"
    INDEX 01 02:09:34
  TRACK 60 AUDIO
    TITLE "6:cjc150_1467"
    INDEX 01 02:11:55
  TRACK 61 AUDIO
    TITLE "6:cjc150_1468"
    INDEX 01 02:14:51
  TRACK 62 AUDIO
    TITLE "6:cjc150_1469"
    INDEX 01 02:16:62
  TRACK 63 AUDIO
    TITLE "8:cjc150_1470"
    INDEX 01 02:18:18
  TRACK 64 AUDIO
    TITLE "0:"
    INDEX 01 02:19:70
  TRACK 65 AUDIO
    TITLE "7:cjc150_1471"
    INDEX 01 02:20:65
  TRACK 66 AUDIO
    TITLE "7:cjc150_1472"
    INDEX 01 02:27:26
  TRACK 67 AUDIO
    TITLE "0:"
    INDEX 01 02:33:64
